<?xml version="1.0" encoding="UTF-8"?>
<!-- Generator: Adobe Illustrator 19.0.0, SVG Export Plug-In . SVG Version: 6.00 Build 0)  -->
<svg width="188.98" height="188.98" version="1.1" viewBox="0 0 188.98 188.98" xml:space="preserve" xmlns="http://www.w3.org/2000/svg">
<path d="m171.2 0h-153.43c-9.8151 0-17.772 5.3604-17.772 11.973v165.03c0 6.6123 7.9568 11.973 17.772 11.973h153.43c9.8157 0 17.772-5.3604 17.772-11.973v-165.03c-1e-3 -6.6127-7.9578-11.973-17.773-11.973z" fill="#e6e6e6" stroke-width=".44968"/>
<path d="m157.54 12.829h-126.11c-6.8435 0-12.391 3.7371-12.391 8.3478v146.62c0 4.6104 5.5478 8.3478 12.391 8.3478h126.11c6.8435 0 12.391-3.7371 12.391-8.3478v-146.62c-1e-3 -4.6104-5.5488-8.3474-12.392-8.3474z" fill="#515262" stroke-width=".44968"/>
<polygon transform="matrix(.54787 0 0 .36909 -45.768 0)" points="352.23 256 256 110.62 159.77 256 256 401.38" fill="#e6e6e6"/>
<path d="m38.086 177v-165.03c0-6.6127 7.9567-11.973 17.772-11.973h-38.086c-9.8151 0-17.772 5.3604-17.772 11.973v165.03c0 6.6123 7.9568 11.973 17.772 11.973h38.086c-9.8157-3.7e-4 -17.772-5.3607-17.772-11.973z" enable-background="new" opacity=".1" stroke-width=".44968"/>















</svg>
